{
    "asset": {
        "generator": "FBX2glTF v0.9.7",
        "version": "2.0"
    },
    "scene": 0,
    "buffers": [
        {
            "byteLength": 130760,
            "uri": "data:application/octet-stream;base64,"
        }
    ],
    "bufferViews": [
        {
            "buffer": 0,
            "byteLength": 4800,
            "byteOffset": 0,
            "target": 34963
        },
        {
            "buffer": 0,
            "byteLength": 5292,
            "byteOffset": 4800,
            "target": 34962
        },
        {
            "buffer": 0,
            "byteLength": 5292,
            "byteOffset": 10092,
            "target": 34962
        },
        {
            "buffer": 0,
            "byteLength": 3528,
            "byteOffset": 15384,
            "target": 34962
        },
        {
            "buffer": 0,
            "byteLength": 3528,
            "byteOffset": 18912,
            "target": 34962
        },
        {
            "buffer": 0,
            "byteLength": 6960,
            "byteOffset": 22440,
            "target": 34963
        },
        {
            "buffer": 0,
            "byteLength": 7560,
            "byteOffset": 29400,
            "target": 34962
        },
        {
            "buffer": 0,
            "byteLength": 7560,
            "byteOffset": 36960,
            "target": 34962
        },
        {
            "buffer": 0,
            "byteLength": 5040,
            "byteOffset": 44520,
            "target": 34962
        },
        {
            "buffer": 0,
            "byteLength": 5040,
            "byteOffset": 49560,
            "target": 34962
        },
        {
            "buffer": 0,
            "byteLength": 162,
            "byteOffset": 54600,
            "target": 34963
        },
        {
            "buffer": 0,
            "byteLength": 348,
            "byteOffset": 54764,
            "target": 34962
        },
        {
            "buffer": 0,
            "byteLength": 348,
            "byteOffset": 55112,
            "target": 34962
        },
        {
            "buffer": 0,
            "byteLength": 232,
            "byteOffset": 55460,
            "target": 34962
        },
        {
            "buffer": 0,
            "byteLength": 232,
            "byteOffset": 55692,
            "target": 34962
        },
        {
            "buffer": 0,
            "byteLength": 4800,
            "byteOffset": 55924,
            "target": 34963
        },
        {
            "buffer": 0,
            "byteLength": 5292,
            "byteOffset": 60724,
            "target": 34962
        },
        {
            "buffer": 0,
            "byteLength": 5292,
            "byteOffset": 66016,
            "target": 34962
        },
        {
            "buffer": 0,
            "byteLength": 3528,
            "byteOffset": 71308,
            "target": 34962
        },
        {
            "buffer": 0,
            "byteLength": 3528,
            "byteOffset": 74836,
            "target": 34962
        },
        {
            "buffer": 0,
            "byteLength": 6960,
            "byteOffset": 78364,
            "target": 34963
        },
        {
            "buffer": 0,
            "byteLength": 7560,
            "byteOffset": 85324,
            "target": 34962
        },
        {
            "buffer": 0,
            "byteLength": 7560,
            "byteOffset": 92884,
            "target": 34962
        },
        {
            "buffer": 0,
            "byteLength": 5040,
            "byteOffset": 100444,
            "target": 34962
        },
        {
            "buffer": 0,
            "byteLength": 5040,
            "byteOffset": 105484,
            "target": 34962
        },
        {
            "buffer": 0,
            "byteLength": 162,
            "byteOffset": 110524,
            "target": 34963
        },
        {
            "buffer": 0,
            "byteLength": 348,
            "byteOffset": 110688,
            "target": 34962
        },
        {
            "buffer": 0,
            "byteLength": 348,
            "byteOffset": 111036,
            "target": 34962
        },
        {
            "buffer": 0,
            "byteLength": 232,
            "byteOffset": 111384,
            "target": 34962
        },
        {
            "buffer": 0,
            "byteLength": 232,
            "byteOffset": 111616,
            "target": 34962
        },
        {
            "buffer": 0,
            "byteLength": 4800,
            "byteOffset": 111848,
            "target": 34963
        },
        {
            "buffer": 0,
            "byteLength": 5292,
            "byteOffset": 116648,
            "target": 34962
        },
        {
            "buffer": 0,
            "byteLength": 5292,
            "byteOffset": 121940,
            "target": 34962
        },
        {
            "buffer": 0,
            "byteLength": 3528,
            "byteOffset": 127232,
            "target": 34962
        }
    ],
    "scenes": [
        {
            "name": "Root Scene",
            "nodes": [
                0
            ]
        }
    ],
    "accessors": [
        {
            "componentType": 5123,
            "type": "SCALAR",
            "count": 2400,
            "bufferView": 0,
            "byteOffset": 0
        },
        {
            "componentType": 5126,
            "type": "VEC3",
            "count": 441,
            "bufferView": 1,
            "byteOffset": 0,
            "min": [
                -2.0,
                -2.0,
                0.0
            ],
            "max": [
                2.0,
                2.0,
                0.0
            ]
        },
        {
            "componentType": 5126,
            "type": "VEC3",
            "count": 441,
            "bufferView": 2,
            "byteOffset": 0
        },
        {
            "componentType": 5126,
            "type": "VEC2",
            "count": 441,
            "bufferView": 3,
            "byteOffset": 0
        },
        {
            "componentType": 5126,
            "type": "VEC2",
            "count": 441,
            "bufferView": 4,
            "byteOffset": 0
        },
        {
            "componentType": 5123,
            "type": "SCALAR",
            "count": 3480,
            "bufferView": 5,
            "byteOffset": 0
        },
        {
            "componentType": 5126,
            "type": "VEC3",
            "count": 630,
            "bufferView": 6,
            "byteOffset": 0,
            "min": [
                -1.99999964237213,
                -2.0,
                -3.05862092971802
            ],
            "max": [
                2.00000023841858,
                2.0,
                -0.273491442203522
            ]
        },
        {
            "componentType": 5126,
            "type": "VEC3",
            "count": 630,
            "bufferView": 7,
            "byteOffset": 0
        },
        {
            "componentType": 5126,
            "type": "VEC2",
            "count": 630,
            "bufferView": 8,
            "byteOffset": 0
        },
        {
            "componentType": 5126,
            "type": "VEC2",
            "count": 630,
            "bufferView": 9,
            "byteOffset": 0
        },
        {
            "componentType": 5123,
            "type": "SCALAR",
            "count": 81,
            "bufferView": 10,
            "byteOffset": 0
        },
        {
            "componentType": 5126,
            "type": "VEC3",
            "count": 29,
            "bufferView": 11,
            "byteOffset": 0,
            "min": [
                -0.278544545173645,
                -0.278544545173645,
                0.0
            ],
            "max": [
                0.278544545173645,
                0.278544545173645,
                0.0
            ]
        },
        {
            "componentType": 5126,
            "type": "VEC3",
            "count": 29,
            "bufferView": 12,
            "byteOffset": 0
        },
        {
            "componentType": 5126,
            "type": "VEC2",
            "count": 29,
            "bufferView": 13,
            "byteOffset": 0
        },
        {
            "componentType": 5126,
            "type": "VEC2",
            "count": 29,
            "bufferView": 14,
            "byteOffset": 0
        },
        {
            "componentType": 5123,
            "type": "SCALAR",
            "count": 2400,
            "bufferView": 15,
            "byteOffset": 0
        },
        {
            "componentType": 5126,
            "type": "VEC3",
            "count": 441,
            "bufferView": 16,
            "byteOffset": 0,
            "min": [
                -7.5,
                0.0,
                -7.5
            ],
            "max": [
                7.5,
                0.0,
                7.5
            ]
        },
        {
            "componentType": 5126,
            "type": "VEC3",
            "count": 441,
            "bufferView": 17,
            "byteOffset": 0
        },
        {
            "componentType": 5126,
            "type": "VEC2",
            "count": 441,
            "bufferView": 18,
            "byteOffset": 0
        },
        {
            "componentType": 5126,
            "type": "VEC2",
            "count": 441,
            "bufferView": 19,
            "byteOffset": 0
        },
        {
            "componentType": 5123,
            "type": "SCALAR",
            "count": 3480,
            "bufferView": 20,
            "byteOffset": 0
        },
        {
            "componentType": 5126,
            "type": "VEC3",
            "count": 630,
            "bufferView": 21,
            "byteOffset": 0,
            "min": [
                -7.5,
                -7.5,
                -4.83979415893555
            ],
            "max": [
                7.5,
                7.5,
                -0.146065339446068
            ]
        },
        {
            "componentType": 5126,
            "type": "VEC3",
            "count": 630,
            "bufferView": 22,
            "byteOffset": 0
        },
        {
            "componentType": 5126,
            "type": "VEC2",
            "count": 630,
            "bufferView": 23,
            "byteOffset": 0
        },
        {
            "componentType": 5126,
            "type": "VEC2",
            "count": 630,
            "bufferView": 24,
            "byteOffset": 0
        },
        {
            "componentType": 5123,
            "type": "SCALAR",
            "count": 81,
            "bufferView": 25,
            "byteOffset": 0
        },
        {
            "componentType": 5126,
            "type": "VEC3",
            "count": 29,
            "bufferView": 26,
            "byteOffset": 0,
            "min": [
                -0.278544545173645,
                -0.278544545173645,
                0.0
            ],
            "max": [
                0.278544545173645,
                0.278544545173645,
                0.0
            ]
        },
        {
            "componentType": 5126,
            "type": "VEC3",
            "count": 29,
            "bufferView": 27,
            "byteOffset": 0
        },
        {
            "componentType": 5126,
            "type": "VEC2",
            "count": 29,
            "bufferView": 28,
            "byteOffset": 0
        },
        {
            "componentType": 5126,
            "type": "VEC2",
            "count": 29,
            "bufferView": 29,
            "byteOffset": 0
        },
        {
            "componentType": 5123,
            "type": "SCALAR",
            "count": 2400,
            "bufferView": 30,
            "byteOffset": 0
        },
        {
            "componentType": 5126,
            "type": "VEC3",
            "count": 441,
            "bufferView": 31,
            "byteOffset": 0,
            "min": [
                -2.0,
                0.0,
                -2.0
            ],
            "max": [
                2.0,
                0.0,
                2.0
            ]
        },
        {
            "componentType": 5126,
            "type": "VEC3",
            "count": 441,
            "bufferView": 32,
            "byteOffset": 0
        },
        {
            "componentType": 5126,
            "type": "VEC2",
            "count": 441,
            "bufferView": 33,
            "byteOffset": 0
        }
    ],
    "samplers": [
        {}
    ],
    "materials": [
        {
            "name": "Softbox Texture",
            "alphaMode": "OPAQUE",
            "extras": {
                "fromFBX": {
                    "shadingModel": "Lambert",
                    "isTruePBR": false
                }
            },
            "emissiveFactor": [
                1.0,
                1.0,
                1.0
            ],
            "pbrMetallicRoughness": {
                "baseColorFactor": [
                    0.0,
                    0.0,
                    0.0,
                    1.0
                ],
                "metallicFactor": 0.200000002980232,
                "roughnessFactor": 0.800000011920929
            }
        },
        {
            "name": "Black",
            "alphaMode": "OPAQUE",
            "extras": {
                "fromFBX": {
                    "shadingModel": "Phong",
                    "isTruePBR": false
                }
            },
            "pbrMetallicRoughness": {
                "baseColorFactor": [
                    0.0588235296308994,
                    0.0588235296308994,
                    0.0549019612371922,
                    1.0
                ],
                "metallicFactor": 0.400000005960464,
                "roughnessFactor": 0.242535620927811
            }
        },
        {
            "name": "Softbox Texture",
            "alphaMode": "OPAQUE",
            "extras": {
                "fromFBX": {
                    "shadingModel": "Lambert",
                    "isTruePBR": false
                }
            },
            "emissiveFactor": [
                1.0,
                1.0,
                1.0
            ],
            "pbrMetallicRoughness": {
                "baseColorFactor": [
                    0.0,
                    0.0,
                    0.0,
                    1.0
                ],
                "metallicFactor": 0.200000002980232,
                "roughnessFactor": 0.800000011920929
            }
        },
        {
            "name": "Mat",
            "alphaMode": "OPAQUE",
            "extras": {
                "fromFBX": {
                    "shadingModel": "Phong",
                    "isTruePBR": false
                }
            },
            "pbrMetallicRoughness": {
                "baseColorFactor": [
                    0.0588235296308994,
                    0.0588235296308994,
                    0.0549019612371922,
                    1.0
                ],
                "metallicFactor": 0.400000005960464,
                "roughnessFactor": 0.242535620927811
            }
        },
        {
            "name": "Mat.1",
            "alphaMode": "OPAQUE",
            "extras": {
                "fromFBX": {
                    "shadingModel": "Phong",
                    "isTruePBR": false
                }
            },
            "pbrMetallicRoughness": {
                "baseColorFactor": [
                    0.800000011920929,
                    0.800000011920929,
                    0.800000011920929,
                    1.0
                ],
                "metallicFactor": 0.400000005960464,
                "roughnessFactor": 0.242535620927811
            }
        }
    ],
    "meshes": [
        {
            "name": "Front_Of_Softbox",
            "primitives": [
                {
                    "material": 0,
                    "mode": 4,
                    "attributes": {
                        "NORMAL": 2,
                        "POSITION": 1,
                        "TEXCOORD_0": 3,
                        "TEXCOORD_1": 4
                    },
                    "indices": 0
                }
            ]
        },
        {
            "name": "Softbox_Assembly",
            "primitives": [
                {
                    "material": 1,
                    "mode": 4,
                    "attributes": {
                        "NORMAL": 7,
                        "POSITION": 6,
                        "TEXCOORD_0": 8,
                        "TEXCOORD_1": 9
                    },
                    "indices": 5
                }
            ]
        },
        {
            "name": "Cap_1",
            "primitives": [
                {
                    "material": 1,
                    "mode": 4,
                    "attributes": {
                        "NORMAL": 12,
                        "POSITION": 11,
                        "TEXCOORD_0": 13,
                        "TEXCOORD_1": 14
                    },
                    "indices": 10
                }
            ]
        },
        {
            "name": "Softbox_2",
            "primitives": [
                {
                    "material": 2,
                    "mode": 4,
                    "attributes": {
                        "NORMAL": 17,
                        "POSITION": 16,
                        "TEXCOORD_0": 18,
                        "TEXCOORD_1": 19
                    },
                    "indices": 15
                }
            ]
        },
        {
            "name": "Softbox_Assembly_2",
            "primitives": [
                {
                    "material": 3,
                    "mode": 4,
                    "attributes": {
                        "NORMAL": 22,
                        "POSITION": 21,
                        "TEXCOORD_0": 23,
                        "TEXCOORD_1": 24
                    },
                    "indices": 20
                }
            ]
        },
        {
            "name": "Cap_1_2",
            "primitives": [
                {
                    "material": 3,
                    "mode": 4,
                    "attributes": {
                        "NORMAL": 27,
                        "POSITION": 26,
                        "TEXCOORD_0": 28,
                        "TEXCOORD_1": 29
                    },
                    "indices": 25
                }
            ]
        },
        {
            "name": "Plane",
            "primitives": [
                {
                    "material": 4,
                    "mode": 4,
                    "attributes": {
                        "NORMAL": 32,
                        "POSITION": 31,
                        "TEXCOORD_1": 33
                    },
                    "indices": 30
                }
            ]
        }
    ],
    "cameras": [
        {
            "name": "",
            "type": "perspective",
            "perspective": {
                "znear": 0.00100000004749745,
                "zfar": 10000.0,
                "aspectRatio": 1.33333337306976,
                "yfov": 0.717541337013245
            }
        }
    ],
    "nodes": [
        {
            "name": "RootNode",
            "translation": [
                0.0,
                0.0,
                0.0
            ],
            "rotation": [
                0.0,
                0.0,
                0.0,
                1.0
            ],
            "scale": [
                1.0,
                1.0,
                1.0
            ],
            "children": [
                1,
                2,
                7,
                13
            ]
        },
        {
            "name": "CINEMA_4D_Editor",
            "translation": [
                3.01535749435425,
                7.66797113418579,
                32.5816040039063
            ],
            "rotation": [
                -0.0478837117552757,
                -0.0129631757736206,
                -0.000621490180492401,
                0.99876856803894
            ],
            "scale": [
                1.0,
                1.0,
                1.0
            ],
            "camera": 0
        },
        {
            "name": "Softbox",
            "translation": [
                0.0,
                0.0,
                0.0
            ],
            "rotation": [
                -0.163175910711288,
                -0.336824089288712,
                -0.0593911707401276,
                0.925416588783264
            ],
            "scale": [
                1.00000011920929,
                1.0,
                1.00000011920929
            ],
            "children": [
                3
            ]
        },
        {
            "name": "Front_Of_Softbox",
            "translation": [
                1.47487116919365e-06,
                -2.84217087951293e-16,
                6.98999977111816
            ],
            "rotation": [
                2.55407369244894e-14,
                -3.46730969496536e-21,
                -1.35756053509795e-07,
                1.0
            ],
            "scale": [
                0.990000009536743,
                0.990000009536743,
                0.990000009536743
            ],
            "children": [
                4,
                6
            ],
            "mesh": 0
        },
        {
            "name": "Softbox_Assembly",
            "translation": [
                6.38961751064926e-07,
                -2.0980817794225e-07,
                3.07674145698547
            ],
            "rotation": [
                3.1655524423968e-08,
                7.51900586237753e-08,
                8.26438335934654e-05,
                1.0
            ],
            "scale": [
                1.0,
                1.0,
                1.00000011920929
            ],
            "children": [
                5
            ],
            "mesh": 1
        },
        {
            "name": "Cap_1",
            "translation": [
                1.43051153145279e-08,
                -1.24930488709651e-06,
                -0.273491442203522
            ],
            "rotation": [
                -1.38777878078145e-17,
                -2.77555756156289e-17,
                1.38777878078145e-17,
                1.0
            ],
            "scale": [
                1.0,
                1.0,
                1.0
            ],
            "mesh": 2
        },
        {
            "name": "Light",
            "translation": [
                -6.10351548857579e-07,
                -2.44140619543032e-06,
                -0.199772641062737
            ],
            "rotation": [
                0.70710676908493,
                1.35420472409289e-15,
                -1.35420472409289e-15,
                0.70710676908493
            ],
            "scale": [
                1.0,
                0.999999642372131,
                0.99999988079071
            ]
        },
        {
            "name": "OverHead_Softbox",
            "translation": [
                5.05838871002197,
                10.0,
                0.0
            ],
            "rotation": [
                0.0,
                0.0,
                0.0,
                1.0
            ],
            "scale": [
                1.0,
                1.0,
                1.0
            ],
            "children": [
                8
            ]
        },
        {
            "name": "Softbox_2",
            "translation": [
                0.0,
                0.0,
                2.50565591386476e-07
            ],
            "rotation": [
                -1.50995802528087e-07,
                -0.0,
                0.0,
                1.0
            ],
            "scale": [
                1.0,
                1.0,
                1.0
            ],
            "children": [
                9,
                10,
                12
            ],
            "mesh": 3
        },
        {
            "name": "Light_Vector",
            "translation": [
                1.51827165950635e-07,
                0.0693481415510178,
                -3.50665715131981e-07
            ],
            "rotation": [
                -0.70710676908493,
                0.0,
                0.0,
                0.70710676908493
            ],
            "scale": [
                1.02512550354004,
                1.02512550354004,
                1.02512550354004
            ]
        },
        {
            "name": "Softbox_Assembly_2",
            "translation": [
                2.99688309723933e-07,
                5.03074502944946,
                -7.15396197392693e-07
            ],
            "rotation": [
                -0.70710676908493,
                1.06770158936342e-07,
                1.06770151830915e-07,
                0.70710676908493
            ],
            "scale": [
                1.02512562274933,
                1.02512562274933,
                1.02512550354004
            ],
            "children": [
                11
            ],
            "mesh": 4
        },
        {
            "name": "Cap_1_2",
            "translation": [
                -3.0517574600708e-07,
                -1.23024017284479e-06,
                -0.146065339446068
            ],
            "rotation": [
                0.0,
                -1.26217744835362e-29,
                2.64697796016969e-23,
                1.0
            ],
            "scale": [
                1.0,
                1.0,
                1.0
            ],
            "mesh": 5
        },
        {
            "name": "Light_2",
            "translation": [
                0.0,
                -0.196256101131439,
                -5.95062601860263e-07
            ],
            "rotation": [
                -2.1855694143369e-08,
                -0.0,
                0.0,
                1.0
            ],
            "scale": [
                1.0,
                0.999999761581421,
                0.999999761581421
            ]
        },
        {
            "name": "FLOOR___BACKGROUND",
            "translation": [
                -0.399677127599716,
                0.0,
                -4.60474252700806
            ],
            "rotation": [
                0.0,
                0.0,
                0.0,
                1.0
            ],
            "scale": [
                1.0,
                1.0,
                1.0
            ],
            "children": [
                14,
                15,
                16
            ]
        },
        {
            "name": "Background",
            "translation": [
                0.399677127599716,
                0.0,
                4.60474252700806
            ],
            "rotation": [
                0.0,
                0.0,
                0.0,
                1.0
            ],
            "scale": [
                1.0,
                1.0,
                1.0
            ]
        },
        {
            "name": "Plane",
            "translation": [
                -0.799354255199432,
                0.0,
                -9.20948505401611
            ],
            "rotation": [
                0.0,
                0.0,
                0.0,
                1.0
            ],
            "scale": [
                19.2999992370605,
                1.0,
                21.8899993896484
            ],
            "mesh": 6
        },
        {
            "name": "Floor",
            "translation": [
                0.399677127599716,
                0.0,
                4.60474252700806
            ],
            "rotation": [
                0.0,
                0.0,
                0.0,
                1.0
            ],
            "scale": [
                7.67999982833862,
                1.0,
                5.8899998664856
            ]
        }
    ]
}