# 3ds Max Wavefront OBJ Exporter v0.97b - (c)2007 guruware
# File Created: 12.06.2016 13:26:49

mtllib Plane.mtl

#
# object Plane
#

v  -500.6842 0.0000 -587.0482
v  -500.6842 0.0000 412.9518
v  499.3158 0.0000 412.9518
v  499.3158 0.0000 -587.0482
# 4 vertices

vn 0.0000 1.0000 -0.0000
# 1 vertex normals

vt 0.0000 1.0000 0.0000
vt 0.0000 0.0000 0.0000
vt 1.0000 0.0000 0.0000
vt 1.0000 1.0000 0.0000
# 4 texture coords

g Plane
usemtl wire_228184153
s 1
f 1/1/1 2/2/1 3/3/1 4/4/1 
# 1 polygons

#
# object PlanformPlane
#

v  -103.7421 5.1085 101.4869
v  -35.0754 5.1085 101.4869
v  -35.0754 5.1085 60.7034
v  -103.7421 5.1085 60.7034
v  33.5912 5.1085 101.4869
v  33.5912 5.1085 60.7034
v  102.2579 5.1085 101.4869
v  102.2579 5.1085 60.7034
v  -35.0754 5.1085 -59.8791
v  -103.7421 5.1085 -59.8791
v  33.5912 5.1085 -59.8791
v  102.2579 5.1085 -59.8791
v  -35.0754 5.1085 -98.5131
v  -103.7421 5.1085 -98.5131
v  33.5912 5.1085 -98.5131
v  102.2579 5.1085 -98.5131
v  144.1735 5.1085 60.7034
v  144.1735 5.1085 -59.8791
v  -145.8681 5.1085 -59.8791
v  -145.8681 5.1085 60.7034
# 20 vertices

vn 0.0000 1.0000 -0.0000
# 1 vertex normals

vt 0.0000 0.0000 0.0000
vt 0.3333 0.0000 0.0000
vt 0.3333 0.3333 0.0000
vt 0.0000 0.3333 0.0000
vt 0.6667 0.0000 0.0000
vt 0.6667 0.3333 0.0000
vt 1.0000 0.0000 0.0000
vt 1.0000 0.3333 0.0000
vt 0.3333 0.6667 0.0000
vt 0.0000 0.6667 0.0000
vt 0.6667 0.6667 0.0000
vt 1.0000 0.6667 0.0000
vt 0.3333 1.0000 0.0000
vt 0.0000 1.0000 0.0000
vt 0.6667 1.0000 0.0000
vt 1.0000 1.0000 0.0000
# 16 texture coords

g PlanformPlane
usemtl wire_087225143
s 1
f 5/5/2 6/6/2 7/7/2 8/8/2 
f 6/6/2 9/9/2 10/10/2 7/7/2 
f 9/9/2 11/11/2 12/12/2 10/10/2 
f 8/8/2 7/7/2 13/13/2 14/14/2 
f 7/7/2 10/10/2 15/15/2 13/13/2 
f 10/10/2 12/12/2 16/16/2 15/15/2 
f 14/14/2 13/13/2 17/17/2 18/18/2 
f 13/13/2 15/15/2 19/19/2 17/17/2 
f 15/15/2 16/16/2 20/20/2 19/19/2 
s off
f 16/16/2 12/12/2 21/12/2 22/16/2 
f 8/8/2 14/14/2 23/14/2 24/8/2 
# 11 polygons

#
# object PlatformLine
#

v  99.2793 0.0000 101.4711
v  -100.7207 0.0000 101.4711
v  -100.7207 0.0000 98.4711
v  99.2793 0.0000 98.4711
v  99.2793 5.0000 101.4711
v  99.2793 5.0000 98.4711
v  -100.7207 5.0000 98.4711
v  -100.7207 5.0000 101.4711
v  -103.7556 0.0000 101.2467
v  -103.7556 0.0000 -98.7533
v  -100.7556 0.0000 -98.7533
v  -100.7556 0.0000 101.2467
v  -103.7556 5.0000 101.2467
v  -100.7556 5.0000 101.2467
v  -100.7556 5.0000 -98.7533
v  -103.7556 5.0000 -98.7533
v  -60.8530 0.0000 101.2467
v  -60.8530 0.0000 -98.7533
v  -57.8530 0.0000 -98.7533
v  -57.8530 0.0000 101.2467
v  -60.8530 5.0000 101.2467
v  -57.8530 5.0000 101.2467
v  -57.8530 5.0000 -98.7533
v  -60.8530 5.0000 -98.7533
v  -20.8850 0.0000 101.2467
v  -20.8850 0.0000 -98.7533
v  -17.8850 0.0000 -98.7533
v  -17.8850 0.0000 101.2467
v  -20.8850 5.0000 101.2467
v  -17.8850 5.0000 101.2467
v  -17.8850 5.0000 -98.7533
v  -20.8850 5.0000 -98.7533
v  19.0830 0.0000 101.2467
v  19.0830 0.0000 -98.7533
v  22.0830 0.0000 -98.7533
v  22.0830 0.0000 101.2467
v  19.0830 5.0000 101.2467
v  22.0830 5.0000 101.2467
v  22.0830 5.0000 -98.7533
v  19.0830 5.0000 -98.7533
v  59.0510 0.0000 101.2467
v  59.0510 0.0000 -98.7533
v  62.0510 0.0000 -98.7533
v  62.0510 0.0000 101.2467
v  59.0510 5.0000 101.2467
v  62.0510 5.0000 101.2467
v  62.0510 5.0000 -98.7533
v  59.0510 5.0000 -98.7533
v  99.2747 0.0000 101.2467
v  99.2747 0.0000 -98.7533
v  102.2747 0.0000 -98.7533
v  102.2747 0.0000 101.2467
v  99.2747 5.0000 101.2467
v  102.2747 5.0000 101.2467
v  102.2747 5.0000 -98.7533
v  99.2747 5.0000 -98.7533
v  144.2793 0.0000 -56.7583
v  -145.7207 0.0000 -56.7583
v  -145.7207 0.0000 -59.7583
v  144.2793 0.0000 -59.7583
v  144.2793 5.0000 -56.7583
v  144.2793 5.0000 -59.7583
v  -145.7207 5.0000 -59.7583
v  -145.7207 5.0000 -56.7583
v  144.2793 0.0000 -17.5715
v  -145.7207 0.0000 -17.5714
v  -145.7207 0.0000 -20.5714
v  144.2793 0.0000 -20.5715
v  144.2793 5.0000 -17.5715
v  144.2793 5.0000 -20.5715
v  -145.7207 5.0000 -20.5714
v  -145.7207 5.0000 -17.5714
v  144.2793 0.0000 21.6154
v  -145.7207 0.0000 21.6154
v  -145.7207 0.0000 18.6154
v  144.2793 0.0000 18.6154
v  144.2793 5.0000 21.6154
v  144.2793 5.0000 18.6154
v  -145.7207 5.0000 18.6154
v  -145.7207 5.0000 21.6154
v  144.2793 0.0000 60.8022
v  -145.7207 0.0000 60.8022
v  -145.7207 0.0000 57.8022
v  144.2793 0.0000 57.8022
v  144.2793 5.0000 60.8022
v  144.2793 5.0000 57.8022
v  -145.7207 5.0000 57.8022
v  -145.7207 5.0000 60.8022
v  99.2793 0.0000 -95.7393
v  -100.7207 0.0000 -95.7393
v  -100.7207 0.0000 -98.7393
v  99.2793 0.0000 -98.7393
v  99.2793 5.0000 -95.7393
v  99.2793 5.0000 -98.7393
v  -100.7207 5.0000 -98.7393
v  -100.7207 5.0000 -95.7393
v  141.2827 0.0000 60.4894
v  141.2827 0.0000 -59.5106
v  144.2827 0.0000 -59.5106
v  144.2827 0.0000 60.4894
v  141.2827 5.0000 60.4894
v  144.2827 5.0000 60.4894
v  144.2827 5.0000 -59.5106
v  141.2827 5.0000 -59.5106
v  -145.8105 0.0000 60.4894
v  -145.8105 0.0000 -59.5106
v  -142.8105 0.0000 -59.5106
v  -142.8105 0.0000 60.4894
v  -145.8105 5.0000 60.4894
v  -142.8105 5.0000 60.4894
v  -142.8105 5.0000 -59.5106
v  -145.8105 5.0000 -59.5106
# 112 vertices

vn 0.0000 -1.0000 -0.0000
vn 0.0000 1.0000 -0.0000
vn 1.0000 0.0000 -0.0000
vn -0.0000 0.0000 -1.0000
vn -1.0000 0.0000 0.0000
vn 0.0000 0.0000 1.0000
vn 1.0000 0.0000 0.0000
vn -1.0000 0.0000 -0.0000
# 8 vertex normals

vt 1.0000 0.0000 0.0000
vt 1.0000 1.0000 0.0000
vt 0.0000 1.0000 0.0000
vt 0.0000 0.0000 0.0000
# 4 texture coords

g PlatformLine
usemtl wire_087225087
s 2
f 25/21/3 26/22/3 27/23/3 28/24/3 
s 4
f 29/24/4 30/21/4 31/22/4 32/23/4 
s 8
f 25/24/5 28/21/5 30/22/5 29/23/5 
s 16
f 28/24/6 27/21/6 31/22/6 30/23/6 
s 32
f 27/24/7 26/21/7 32/22/7 31/23/7 
s 64
f 26/24/8 25/21/8 29/22/8 32/23/8 
s 2
f 33/21/3 34/22/3 35/23/3 36/24/3 
s 4
f 37/24/4 38/21/4 39/22/4 40/23/4 
s 8
f 33/24/8 36/21/8 38/22/8 37/23/8 
s 16
f 36/24/9 35/21/9 39/22/9 38/23/9 
s 32
f 35/24/6 34/21/6 40/22/6 39/23/6 
s 64
f 34/24/10 33/21/10 37/22/10 40/23/10 
s 2
f 41/21/3 42/22/3 43/23/3 44/24/3 
s 4
f 45/24/4 46/21/4 47/22/4 48/23/4 
s 8
f 41/24/8 44/21/8 46/22/8 45/23/8 
s 16
f 44/24/5 43/21/5 47/22/5 46/23/5 
s 32
f 43/24/6 42/21/6 48/22/6 47/23/6 
s 64
f 42/24/7 41/21/7 45/22/7 48/23/7 
s 2
f 49/21/3 50/22/3 51/23/3 52/24/3 
s 4
f 53/24/4 54/21/4 55/22/4 56/23/4 
s 8
f 49/24/8 52/21/8 54/22/8 53/23/8 
s 16
f 52/24/5 51/21/5 55/22/5 54/23/5 
s 32
f 51/24/6 50/21/6 56/22/6 55/23/6 
s 64
f 50/24/7 49/21/7 53/22/7 56/23/7 
s 2
f 57/21/3 58/22/3 59/23/3 60/24/3 
s 4
f 61/24/4 62/21/4 63/22/4 64/23/4 
s 8
f 57/24/8 60/21/8 62/22/8 61/23/8 
s 16
f 60/24/5 59/21/5 63/22/5 62/23/5 
s 32
f 59/24/6 58/21/6 64/22/6 63/23/6 
s 64
f 58/24/7 57/21/7 61/22/7 64/23/7 
s 2
f 65/21/3 66/22/3 67/23/3 68/24/3 
s 4
f 69/24/4 70/21/4 71/22/4 72/23/4 
s 8
f 65/24/8 68/21/8 70/22/8 69/23/8 
s 16
f 68/24/5 67/21/5 71/22/5 70/23/5 
s 32
f 67/24/6 66/21/6 72/22/6 71/23/6 
s 64
f 66/24/7 65/21/7 69/22/7 72/23/7 
s 2
f 73/21/3 74/22/3 75/23/3 76/24/3 
s 4
f 77/24/4 78/21/4 79/22/4 80/23/4 
s 8
f 73/24/8 76/21/8 78/22/8 77/23/8 
s 16
f 76/24/9 75/21/9 79/22/9 78/23/9 
s 32
f 75/24/6 74/21/6 80/22/6 79/23/6 
s 64
f 74/24/10 73/21/10 77/22/10 80/23/10 
s 2
f 81/21/3 82/22/3 83/23/3 84/24/3 
s 4
f 85/24/4 86/21/4 87/22/4 88/23/4 
s 8
f 81/24/5 84/21/5 86/22/5 85/23/5 
s 16
f 84/24/6 83/21/6 87/22/6 86/23/6 
s 32
f 83/24/7 82/21/7 88/22/7 87/23/7 
s 64
f 82/24/8 81/21/8 85/22/8 88/23/8 
s 2
f 89/21/3 90/22/3 91/23/3 92/24/3 
s 4
f 93/24/4 94/21/4 95/22/4 96/23/4 
s 8
f 89/24/5 92/21/5 94/22/5 93/23/5 
s 16
f 92/24/6 91/21/6 95/22/6 94/23/6 
s 32
f 91/24/7 90/21/7 96/22/7 95/23/7 
s 64
f 90/24/8 89/21/8 93/22/8 96/23/8 
s 2
f 97/21/3 98/22/3 99/23/3 100/24/3 
s 4
f 101/24/4 102/21/4 103/22/4 104/23/4 
s 8
f 97/24/5 100/21/5 102/22/5 101/23/5 
s 16
f 100/24/6 99/21/6 103/22/6 102/23/6 
s 32
f 99/24/7 98/21/7 104/22/7 103/23/7 
s 64
f 98/24/8 97/21/8 101/22/8 104/23/8 
s 2
f 105/21/3 106/22/3 107/23/3 108/24/3 
s 4
f 109/24/4 110/21/4 111/22/4 112/23/4 
s 8
f 105/24/5 108/21/5 110/22/5 109/23/5 
s 16
f 108/24/6 107/21/6 111/22/6 110/23/6 
s 32
f 107/24/7 106/21/7 112/22/7 111/23/7 
s 64
f 106/24/8 105/21/8 109/22/8 112/23/8 
s 2
f 113/21/3 114/22/3 115/23/3 116/24/3 
s 4
f 117/24/4 118/21/4 119/22/4 120/23/4 
s 8
f 113/24/5 116/21/5 118/22/5 117/23/5 
s 16
f 116/24/6 115/21/6 119/22/6 118/23/6 
s 32
f 115/24/7 114/21/7 120/22/7 119/23/7 
s 64
f 114/24/8 113/21/8 117/22/8 120/23/8 
s 2
f 121/21/3 122/22/3 123/23/3 124/24/3 
s 4
f 125/24/4 126/21/4 127/22/4 128/23/4 
s 8
f 121/24/8 124/21/8 126/22/8 125/23/8 
s 16
f 124/24/5 123/21/5 127/22/5 126/23/5 
s 32
f 123/24/6 122/21/6 128/22/6 127/23/6 
s 64
f 122/24/7 121/21/7 125/22/7 128/23/7 
s 2
f 129/21/3 130/22/3 131/23/3 132/24/3 
s 4
f 133/24/4 134/21/4 135/22/4 136/23/4 
s 8
f 129/24/8 132/21/8 134/22/8 133/23/8 
s 16
f 132/24/5 131/21/5 135/22/5 134/23/5 
s 32
f 131/24/6 130/21/6 136/22/6 135/23/6 
s 64
f 130/24/7 129/21/7 133/22/7 136/23/7 
# 84 polygons

