{
    "asset": {
        "generator": "FBX2glTF v0.9.7",
        "version": "2.0"
    },
    "scene": 0,
    "buffers": [
        {
            "byteLength": 222812,
            "uri": "data:application/octet-stream;base64,"
        }
    ],
    "bufferViews": [
        {
            "buffer": 0,
            "byteLength": 3816,
            "byteOffset": 0,
            "target": 34963
        },
        {
            "buffer": 0,
            "byteLength": 5136,
            "byteOffset": 3816,
            "target": 34962
        },
        {
            "buffer": 0,
            "byteLength": 5136,
            "byteOffset": 8952,
            "target": 34962
        },
        {
            "buffer": 0,
            "byteLength": 3424,
            "byteOffset": 14088,
            "target": 34962
        },
        {
            "buffer": 0,
            "byteLength": 5700,
            "byteOffset": 17512,
            "target": 34963
        },
        {
            "buffer": 0,
            "byteLength": 6948,
            "byteOffset": 23212,
            "target": 34962
        },
        {
            "buffer": 0,
            "byteLength": 6948,
            "byteOffset": 30160,
            "target": 34962
        },
        {
            "buffer": 0,
            "byteLength": 4632,
            "byteOffset": 37108,
            "target": 34962
        },
        {
            "buffer": 0,
            "byteLength": 10626,
            "byteOffset": 41740,
            "target": 34963
        },
        {
            "buffer": 0,
            "byteLength": 13452,
            "byteOffset": 52368,
            "target": 34962
        },
        {
            "buffer": 0,
            "byteLength": 13452,
            "byteOffset": 65820,
            "target": 34962
        },
        {
            "buffer": 0,
            "byteLength": 8968,
            "byteOffset": 79272,
            "target": 34962
        },
        {
            "buffer": 0,
            "byteLength": 6960,
            "byteOffset": 88240,
            "target": 34963
        },
        {
            "buffer": 0,
            "byteLength": 7860,
            "byteOffset": 95200,
            "target": 34962
        },
        {
            "buffer": 0,
            "byteLength": 7860,
            "byteOffset": 103060,
            "target": 34962
        },
        {
            "buffer": 0,
            "byteLength": 5240,
            "byteOffset": 110920,
            "target": 34962
        },
        {
            "buffer": 0,
            "byteLength": 10992,
            "byteOffset": 116160,
            "target": 34963
        },
        {
            "buffer": 0,
            "byteLength": 13668,
            "byteOffset": 127152,
            "target": 34962
        },
        {
            "buffer": 0,
            "byteLength": 13668,
            "byteOffset": 140820,
            "target": 34962
        },
        {
            "buffer": 0,
            "byteLength": 9112,
            "byteOffset": 154488,
            "target": 34962
        },
        {
            "buffer": 0,
            "byteLength": 480,
            "byteOffset": 163600,
            "target": 34963
        },
        {
            "buffer": 0,
            "byteLength": 1032,
            "byteOffset": 164080,
            "target": 34962
        },
        {
            "buffer": 0,
            "byteLength": 1032,
            "byteOffset": 165112,
            "target": 34962
        },
        {
            "buffer": 0,
            "byteLength": 688,
            "byteOffset": 166144,
            "target": 34962
        },
        {
            "buffer": 0,
            "byteLength": 8844,
            "byteOffset": 166832,
            "target": 34963
        },
        {
            "buffer": 0,
            "byteLength": 10416,
            "byteOffset": 175676,
            "target": 34962
        },
        {
            "buffer": 0,
            "byteLength": 10416,
            "byteOffset": 186092,
            "target": 34962
        },
        {
            "buffer": 0,
            "byteLength": 6944,
            "byteOffset": 196508,
            "target": 34962
        },
        {
            "buffer": 0,
            "byteLength": 3600,
            "byteOffset": 203452,
            "target": 34963
        },
        {
            "buffer": 0,
            "byteLength": 4356,
            "byteOffset": 207052,
            "target": 34962
        },
        {
            "buffer": 0,
            "byteLength": 4356,
            "byteOffset": 211408,
            "target": 34962
        },
        {
            "buffer": 0,
            "byteLength": 2904,
            "byteOffset": 215764,
            "target": 34962
        },
        {
            "buffer": 0,
            "byteLength": 144,
            "byteOffset": 218668,
            "target": 34963
        },
        {
            "buffer": 0,
            "byteLength": 600,
            "byteOffset": 218812,
            "target": 34962
        },
        {
            "buffer": 0,
            "byteLength": 600,
            "byteOffset": 219412,
            "target": 34962
        },
        {
            "buffer": 0,
            "byteLength": 400,
            "byteOffset": 220012,
            "target": 34962
        },
        {
            "buffer": 0,
            "byteLength": 288,
            "byteOffset": 220412,
            "target": 34963
        },
        {
            "buffer": 0,
            "byteLength": 792,
            "byteOffset": 220700,
            "target": 34962
        },
        {
            "buffer": 0,
            "byteLength": 792,
            "byteOffset": 221492,
            "target": 34962
        },
        {
            "buffer": 0,
            "byteLength": 528,
            "byteOffset": 222284,
            "target": 34962
        }
    ],
    "scenes": [
        {
            "name": "Root Scene",
            "nodes": [
                0
            ]
        }
    ],
    "accessors": [
        {
            "componentType": 5123,
            "type": "SCALAR",
            "count": 1908,
            "bufferView": 0,
            "byteOffset": 0
        },
        {
            "componentType": 5126,
            "type": "VEC3",
            "count": 428,
            "bufferView": 1,
            "byteOffset": 0,
            "min": [
                -0.0967011228203773,
                -0.0875363424420357,
                -0.00340552325360477
            ],
            "max": [
                0.0941287130117416,
                0.0932024270296097,
                0.119001291692257
            ]
        },
        {
            "componentType": 5126,
            "type": "VEC3",
            "count": 428,
            "bufferView": 2,
            "byteOffset": 0
        },
        {
            "componentType": 5126,
            "type": "VEC2",
            "count": 428,
            "bufferView": 3,
            "byteOffset": 0
        },
        {
            "componentType": 5123,
            "type": "SCALAR",
            "count": 2850,
            "bufferView": 4,
            "byteOffset": 0
        },
        {
            "componentType": 5126,
            "type": "VEC3",
            "count": 579,
            "bufferView": 5,
            "byteOffset": 0,
            "min": [
                -0.198955878615379,
                -0.103029288351536,
                -0.106355972588062
            ],
            "max": [
                0.0795215964317322,
                0.103029288351536,
                0.112101517617702
            ]
        },
        {
            "componentType": 5126,
            "type": "VEC3",
            "count": 579,
            "bufferView": 6,
            "byteOffset": 0
        },
        {
            "componentType": 5126,
            "type": "VEC2",
            "count": 579,
            "bufferView": 7,
            "byteOffset": 0
        },
        {
            "componentType": 5123,
            "type": "SCALAR",
            "count": 5313,
            "bufferView": 8,
            "byteOffset": 0
        },
        {
            "componentType": 5126,
            "type": "VEC3",
            "count": 1121,
            "bufferView": 9,
            "byteOffset": 0,
            "min": [
                -0.159923896193504,
                -0.0394573546946049,
                0.042356476187706
            ],
            "max": [
                0.15631490945816,
                0.0601624511182308,
                0.130948334932327
            ]
        },
        {
            "componentType": 5126,
            "type": "VEC3",
            "count": 1121,
            "bufferView": 10,
            "byteOffset": 0
        },
        {
            "componentType": 5126,
            "type": "VEC2",
            "count": 1121,
            "bufferView": 11,
            "byteOffset": 0
        },
        {
            "componentType": 5123,
            "type": "SCALAR",
            "count": 3480,
            "bufferView": 12,
            "byteOffset": 0
        },
        {
            "componentType": 5126,
            "type": "VEC3",
            "count": 655,
            "bufferView": 13,
            "byteOffset": 0,
            "min": [
                -0.0872061774134636,
                -0.0875363424420357,
                0.0669802650809288
            ],
            "max": [
                0.0847766250371933,
                0.0932024270296097,
                0.13264499604702
            ]
        },
        {
            "componentType": 5126,
            "type": "VEC3",
            "count": 655,
            "bufferView": 14,
            "byteOffset": 0
        },
        {
            "componentType": 5126,
            "type": "VEC2",
            "count": 655,
            "bufferView": 15,
            "byteOffset": 0
        },
        {
            "componentType": 5123,
            "type": "SCALAR",
            "count": 5496,
            "bufferView": 16,
            "byteOffset": 0
        },
        {
            "componentType": 5126,
            "type": "VEC3",
            "count": 1139,
            "bufferView": 17,
            "byteOffset": 0,
            "min": [
                -0.165206357836723,
                -0.173504516482353,
                0.0491955317556858
            ],
            "max": [
                0.159086093306541,
                0.0848782360553741,
                0.133146658539772
            ]
        },
        {
            "componentType": 5126,
            "type": "VEC3",
            "count": 1139,
            "bufferView": 18,
            "byteOffset": 0
        },
        {
            "componentType": 5126,
            "type": "VEC2",
            "count": 1139,
            "bufferView": 19,
            "byteOffset": 0
        },
        {
            "componentType": 5123,
            "type": "SCALAR",
            "count": 240,
            "bufferView": 20,
            "byteOffset": 0
        },
        {
            "componentType": 5126,
            "type": "VEC3",
            "count": 86,
            "bufferView": 21,
            "byteOffset": 0,
            "min": [
                -0.0775856748223305,
                -0.101904310286045,
                -0.00494232168421149
            ],
            "max": [
                0.0521890483796597,
                -0.0118656922131777,
                0.0968338772654533
            ]
        },
        {
            "componentType": 5126,
            "type": "VEC3",
            "count": 86,
            "bufferView": 22,
            "byteOffset": 0
        },
        {
            "componentType": 5126,
            "type": "VEC2",
            "count": 86,
            "bufferView": 23,
            "byteOffset": 0
        },
        {
            "componentType": 5123,
            "type": "SCALAR",
            "count": 4422,
            "bufferView": 24,
            "byteOffset": 0
        },
        {
            "componentType": 5126,
            "type": "VEC3",
            "count": 868,
            "bufferView": 25,
            "byteOffset": 0,
            "min": [
                -0.199951142072678,
                -0.103849001228809,
                0.0398519821465015
            ],
            "max": [
                0.19488713145256,
                0.176312386989594,
                0.134598940610886
            ]
        },
        {
            "componentType": 5126,
            "type": "VEC3",
            "count": 868,
            "bufferView": 26,
            "byteOffset": 0
        },
        {
            "componentType": 5126,
            "type": "VEC2",
            "count": 868,
            "bufferView": 27,
            "byteOffset": 0
        },
        {
            "componentType": 5123,
            "type": "SCALAR",
            "count": 1800,
            "bufferView": 28,
            "byteOffset": 0
        },
        {
            "componentType": 5126,
            "type": "VEC3",
            "count": 363,
            "bufferView": 29,
            "byteOffset": 0,
            "min": [
                -0.157862439751625,
                -0.159516662359238,
                0.089032769203186
            ],
            "max": [
                0.150259211659431,
                0.21705624461174,
                0.133936181664467
            ]
        },
        {
            "componentType": 5126,
            "type": "VEC3",
            "count": 363,
            "bufferView": 30,
            "byteOffset": 0
        },
        {
            "componentType": 5126,
            "type": "VEC2",
            "count": 363,
            "bufferView": 31,
            "byteOffset": 0
        },
        {
            "componentType": 5123,
            "type": "SCALAR",
            "count": 72,
            "bufferView": 32,
            "byteOffset": 0
        },
        {
            "componentType": 5126,
            "type": "VEC3",
            "count": 50,
            "bufferView": 33,
            "byteOffset": 0,
            "min": [
                -0.148163467645645,
                -0.0185773354023695,
                0.110800512135029
            ],
            "max": [
                0.138386860489845,
                0.0418756380677223,
                0.128289788961411
            ]
        },
        {
            "componentType": 5126,
            "type": "VEC3",
            "count": 50,
            "bufferView": 34,
            "byteOffset": 0
        },
        {
            "componentType": 5126,
            "type": "VEC2",
            "count": 50,
            "bufferView": 35,
            "byteOffset": 0
        },
        {
            "componentType": 5123,
            "type": "SCALAR",
            "count": 144,
            "bufferView": 36,
            "byteOffset": 0
        },
        {
            "componentType": 5126,
            "type": "VEC3",
            "count": 66,
            "bufferView": 37,
            "byteOffset": 0,
            "min": [
                -0.182299494743347,
                -0.0824153125286102,
                0.078322596848011
            ],
            "max": [
                -0.119019046425819,
                -0.0463977046310902,
                0.1116593927145
            ]
        },
        {
            "componentType": 5126,
            "type": "VEC3",
            "count": 66,
            "bufferView": 38,
            "byteOffset": 0
        },
        {
            "componentType": 5126,
            "type": "VEC2",
            "count": 66,
            "bufferView": 39,
            "byteOffset": 0
        }
    ],
    "samplers": [
        {}
    ],
    "materials": [
        {
            "name": "Plastic",
            "alphaMode": "OPAQUE",
            "extras": {
                "fromFBX": {
                    "shadingModel": "<unknown>",
                    "isTruePBR": false
                }
            },
            "pbrMetallicRoughness": {
                "baseColorFactor": [
                    0.00784313771873713,
                    0.00784313771873713,
                    0.00784313771873713,
                    1.0
                ],
                "metallicFactor": 0.200000002980232,
                "roughnessFactor": 0.800000011920929
            }
        },
        {
            "name": "Plastic Buttons",
            "alphaMode": "OPAQUE",
            "extras": {
                "fromFBX": {
                    "shadingModel": "<unknown>",
                    "isTruePBR": false
                }
            },
            "pbrMetallicRoughness": {
                "baseColorFactor": [
                    0.00392156885936856,
                    0.00392156885936856,
                    0.00392156885936856,
                    1.0
                ],
                "metallicFactor": 0.200000002980232,
                "roughnessFactor": 0.800000011920929
            }
        },
        {
            "name": "Grain",
            "alphaMode": "OPAQUE",
            "extras": {
                "fromFBX": {
                    "shadingModel": "<unknown>",
                    "isTruePBR": false
                }
            },
            "pbrMetallicRoughness": {
                "baseColorFactor": [
                    0.00784313771873713,
                    0.00784313771873713,
                    0.00784313771873713,
                    1.0
                ],
                "metallicFactor": 0.200000002980232,
                "roughnessFactor": 0.800000011920929
            }
        },
        {
            "name": "Aluminium",
            "alphaMode": "OPAQUE",
            "extras": {
                "fromFBX": {
                    "shadingModel": "<unknown>",
                    "isTruePBR": false
                }
            },
            "pbrMetallicRoughness": {
                "baseColorFactor": [
                    0.0,
                    0.0,
                    0.0,
                    1.0
                ],
                "metallicFactor": 0.200000002980232,
                "roughnessFactor": 0.800000011920929
            }
        },
        {
            "name": "Perforated Leather",
            "alphaMode": "OPAQUE",
            "extras": {
                "fromFBX": {
                    "shadingModel": "<unknown>",
                    "isTruePBR": false
                }
            },
            "pbrMetallicRoughness": {
                "baseColorFactor": [
                    0.00784313771873713,
                    0.00784313771873713,
                    0.00784313771873713,
                    1.0
                ],
                "metallicFactor": 0.200000002980232,
                "roughnessFactor": 0.800000011920929
            }
        },
        {
            "name": "Synthetic Leather",
            "alphaMode": "OPAQUE",
            "extras": {
                "fromFBX": {
                    "shadingModel": "<unknown>",
                    "isTruePBR": false
                }
            },
            "pbrMetallicRoughness": {
                "baseColorFactor": [
                    0.00784313771873713,
                    0.00784313771873713,
                    0.00784313771873713,
                    1.0
                ],
                "metallicFactor": 0.200000002980232,
                "roughnessFactor": 0.800000011920929
            }
        },
        {
            "name": "Symbols",
            "alphaMode": "OPAQUE",
            "extras": {
                "fromFBX": {
                    "shadingModel": "<unknown>",
                    "isTruePBR": false
                }
            },
            "pbrMetallicRoughness": {
                "baseColorFactor": [
                    0.5,
                    0.5,
                    0.5,
                    1.0
                ],
                "metallicFactor": 0.200000002980232,
                "roughnessFactor": 0.800000011920929
            }
        }
    ],
    "meshes": [
        {
            "name": "Steering Wheel",
            "primitives": [
                {
                    "material": 0,
                    "mode": 4,
                    "attributes": {
                        "NORMAL": 2,
                        "POSITION": 1,
                        "TEXCOORD_0": 3
                    },
                    "indices": 0
                },
                {
                    "material": 1,
                    "mode": 4,
                    "attributes": {
                        "NORMAL": 10,
                        "POSITION": 9,
                        "TEXCOORD_0": 11
                    },
                    "indices": 8
                },
                {
                    "material": 2,
                    "mode": 4,
                    "attributes": {
                        "NORMAL": 14,
                        "POSITION": 13,
                        "TEXCOORD_0": 15
                    },
                    "indices": 12
                },
                {
                    "material": 3,
                    "mode": 4,
                    "attributes": {
                        "NORMAL": 18,
                        "POSITION": 17,
                        "TEXCOORD_0": 19
                    },
                    "indices": 16
                },
                {
                    "material": 4,
                    "mode": 4,
                    "attributes": {
                        "NORMAL": 26,
                        "POSITION": 25,
                        "TEXCOORD_0": 27
                    },
                    "indices": 24
                },
                {
                    "material": 5,
                    "mode": 4,
                    "attributes": {
                        "NORMAL": 30,
                        "POSITION": 29,
                        "TEXCOORD_0": 31
                    },
                    "indices": 28
                },
                {
                    "material": 6,
                    "mode": 4,
                    "attributes": {
                        "NORMAL": 34,
                        "POSITION": 33,
                        "TEXCOORD_0": 35
                    },
                    "indices": 32
                }
            ]
        },
        {
            "name": "",
            "primitives": [
                {
                    "material": 0,
                    "mode": 4,
                    "attributes": {
                        "NORMAL": 6,
                        "POSITION": 5,
                        "TEXCOORD_0": 7
                    },
                    "indices": 4
                },
                {
                    "material": 3,
                    "mode": 4,
                    "attributes": {
                        "NORMAL": 22,
                        "POSITION": 21,
                        "TEXCOORD_0": 23
                    },
                    "indices": 20
                },
                {
                    "material": 6,
                    "mode": 4,
                    "attributes": {
                        "NORMAL": 38,
                        "POSITION": 37,
                        "TEXCOORD_0": 39
                    },
                    "indices": 36
                }
            ]
        }
    ],
    "nodes": [
        {
            "name": "RootNode",
            "translation": [
                0.0,
                0.0,
                0.0
            ],
            "rotation": [
                0.0,
                0.0,
                0.0,
                1.0
            ],
            "scale": [
                1.0,
                1.0,
                1.0
            ],
            "children": [
                1,
                2
            ]
        },
        {
            "name": "Steering Wheel",
            "translation": [
                0.0,
                0.19633512198925,
                0.0264466032385826
            ],
            "rotation": [
                -0.201532453298569,
                0.0130382943898439,
                0.00268293102271855,
                0.979391396045685
            ],
            "scale": [
                1.0,
                1.0,
                1.0
            ],
            "mesh": 0
        },
        {
            "name": "",
            "translation": [
                0.0,
                0.158645361661911,
                -0.0572104901075363
            ],
            "rotation": [
                -0.70710676908493,
                -0.0,
                0.0,
                0.70710676908493
            ],
            "scale": [
                1.0,
                1.0,
                1.0
            ],
            "mesh": 1
        }
    ]
}